<?xml version="1.0" standalone="no"?>
<!DOCTYPE svg PUBLIC "-//W3C//DTD SVG 20010904//EN"
 "http://www.w3.org/TR/2001/REC-SVG-20010904/DTD/svg10.dtd">
<svg version="1.0" xmlns="http://www.w3.org/2000/svg"
 width="500.000000pt" height="500.000000pt" viewBox="0 0 500.000000 500.000000"
 preserveAspectRatio="xMidYMid meet">

<g transform="translate(0.000000,500.000000) scale(0.100000,-0.100000)"
fill="#000000" stroke="none">
<path d="M2052 3532 c-143 -51 -231 -188 -220 -343 9 -126 77 -222 197 -278
49 -23 67 -26 153 -25 l97 2 110 -113 109 -112 112 112 111 112 97 -1 c85 -1
104 2 152 25 80 37 125 81 162 157 30 60 33 75 33 152 -1 73 -5 93 -30 143
-93 186 -328 244 -496 123 -52 -39 -104 -111 -121 -171 -14 -50 -28 -67 -28
-34 0 74 -96 196 -187 239 -67 32 -179 37 -251 12z m224 -86 c189 -88 190
-366 2 -460 -58 -29 -133 -34 -199 -14 -55 16 -118 73 -145 132 -28 59 -32
157 -10 210 20 49 85 116 131 137 59 27 157 25 221 -5z m671 3 c54 -26 116
-96 131 -147 53 -177 -65 -342 -244 -342 -112 0 -217 78 -245 183 -24 89 5
200 68 259 71 68 203 89 290 47z"/>
<path d="M2193 3364 c19 -99 -87 -195 -182 -165 -19 6 -37 8 -39 6 -12 -12 13
-80 40 -111 75 -85 182 -94 265 -21 79 70 86 185 15 260 -28 30 -72 57 -93 57
-7 0 -9 -10 -6 -26z"/>
<path d="M2884 3367 c8 -33 -10 -91 -40 -127 -33 -38 -95 -56 -143 -41 -19 6
-37 8 -39 6 -3 -2 -1 -21 3 -42 4 -25 21 -51 49 -79 88 -88 205 -79 282 22 25
33 29 46 29 104 0 58 -4 71 -29 104 -49 64 -124 100 -112 53z"/>
<path d="M1910 2750 c0 -5 5 -10 10 -10 6 0 10 5 10 10 0 6 -4 10 -10 10 -5 0
-10 -4 -10 -10z"/>
<path d="M3070 2750 c0 -5 5 -10 10 -10 6 0 10 5 10 10 0 6 -4 10 -10 10 -5 0
-10 -4 -10 -10z"/>
<path d="M1820 2133 c-62 -32 -89 -127 -55 -193 26 -49 61 -70 122 -70 50 0
58 3 91 36 l37 37 -24 8 c-18 7 -29 4 -53 -16 -37 -32 -72 -32 -103 0 -33 32
-36 114 -5 145 28 28 94 27 114 -1 17 -24 59 -18 54 8 -10 50 -117 77 -178 46z"/>
<path d="M3338 2134 c-44 -19 -68 -63 -68 -129 0 -90 47 -135 139 -135 39 0
56 6 80 26 35 30 39 50 12 59 -13 4 -28 -3 -45 -20 -31 -31 -67 -32 -102 -1
-24 20 -28 31 -28 74 0 66 22 92 76 92 24 0 45 -7 57 -19 17 -17 61 -20 61 -4
0 18 -27 47 -55 59 -43 18 -80 17 -127 -2z"/>
<path d="M1170 2005 l0 -135 30 0 c29 0 30 1 30 50 l0 50 70 0 c63 0 70 2 70
20 0 18 -7 20 -70 20 l-70 0 0 45 0 45 70 0 c63 0 70 2 70 20 0 19 -7 20 -100
20 l-100 0 0 -135z"/>
<path d="M1477 2011 c-26 -71 -47 -132 -47 -136 0 -3 12 -5 27 -3 21 2 29 10
37 36 9 31 11 32 62 32 52 0 54 -1 68 -35 12 -28 21 -35 42 -35 17 0 25 5 22
13 -3 6 -25 67 -49 134 l-44 123 -35 0 -35 0 -48 -129z m102 38 c7 -23 15 -47
18 -55 4 -11 -5 -14 -37 -14 -32 0 -41 3 -37 14 3 8 11 32 18 55 7 23 15 41
19 41 4 0 12 -18 19 -41z"/>
<path d="M2080 2005 l0 -135 110 0 c103 0 110 1 110 20 0 17 -8 19 -82 22
l-83 3 0 35 0 35 73 3 c64 3 72 5 72 22 0 18 -7 20 -75 20 l-75 0 0 35 0 35
80 0 c73 0 80 2 80 20 0 19 -7 20 -105 20 l-105 0 0 -135z"/>
<path d="M2350 2120 c0 -17 7 -20 45 -20 l45 0 0 -115 0 -115 30 0 30 0 0 115
0 115 40 0 c33 0 40 3 40 20 0 19 -7 20 -115 20 -108 0 -115 -1 -115 -20z"/>
<path d="M2650 2005 l0 -135 24 0 c23 0 25 4 28 53 3 50 4 52 34 55 29 3 35
-2 64 -52 27 -48 36 -56 61 -56 16 0 29 2 29 5 0 3 -14 27 -30 54 l-31 49 26
26 c33 33 34 87 3 116 -19 17 -35 20 -115 20 l-93 0 0 -135z m170 80 c10 -12
10 -21 2 -40 -10 -22 -18 -25 -67 -25 l-55 0 0 40 0 40 54 0 c36 0 58 -5 66
-15z"/>
<path d="M2996 2014 c-25 -69 -46 -130 -46 -135 0 -5 11 -9 24 -9 19 0 27 8
36 35 l12 36 56 -3 c54 -3 57 -4 66 -35 7 -27 14 -33 37 -33 l28 0 -38 108
c-63 174 -56 162 -95 162 l-34 0 -46 -126z m111 -5 c5 -28 4 -29 -31 -29 -20
0 -36 3 -36 7 0 3 8 31 17 61 l17 55 14 -33 c7 -18 16 -45 19 -61z"/>
<path d="M3600 2005 l0 -135 25 0 c23 0 25 3 25 48 0 46 13 72 35 72 5 -1 30
-28 54 -60 39 -53 49 -60 79 -60 l33 0 -48 60 c-86 108 -83 94 -22 156 l53 54
-29 0 c-23 0 -44 -14 -92 -62 l-63 -62 0 62 c0 59 -1 62 -25 62 l-25 0 0 -135z"/>
<path d="M2122 1675 c-38 -27 -25 -57 30 -75 49 -15 67 -35 49 -53 -14 -14
-74 -13 -79 1 -2 7 -11 12 -19 12 -14 0 -14 -3 2 -20 33 -36 125 -19 125 23 0
24 -17 37 -61 50 -33 10 -44 18 -44 32 0 24 48 33 71 14 16 -13 33 -4 18 11
-19 19 -68 22 -92 5z"/>
<path d="M2420 1605 c0 -92 17 -118 22 -32 3 48 5 52 28 52 23 0 25 -4 28 -52
2 -29 8 -53 13 -53 6 0 9 24 7 56 -3 66 -23 88 -58 66 -18 -11 -20 -10 -20 18
0 16 -4 30 -10 30 -6 0 -10 -35 -10 -85z"/>
<path d="M2880 1605 c0 -50 4 -85 10 -85 6 0 10 35 10 85 0 50 -4 85 -10 85
-6 0 -10 -35 -10 -85z"/>
<path d="M2286 1628 c-20 -29 -20 -72 0 -92 20 -20 58 -21 74 -1 18 22 5 31
-15 11 -22 -22 -34 -20 -46 8 -23 51 14 99 49 64 6 -6 15 -8 19 -4 10 10 -25
36 -48 36 -10 0 -25 -10 -33 -22z"/>
<path d="M2587 1632 c-21 -23 -22 -76 -1 -96 37 -38 94 -8 94 48 0 57 -58 87
-93 48z m69 -26 c8 -33 2 -57 -18 -69 -24 -16 -48 8 -48 48 0 38 6 45 36 45
17 0 25 -7 30 -24z"/>
<path d="M2748 1640 c-47 -28 -24 -120 30 -120 39 0 52 17 52 67 0 32 -5 45
-19 53 -24 12 -41 12 -63 0z m60 -56 c3 -43 -12 -60 -42 -48 -39 15 -23 98 17
92 18 -2 23 -11 25 -44z"/>
</g>
</svg>
