<?xml version="1.0" standalone="no"?>
<!DOCTYPE svg PUBLIC "-//W3C//DTD SVG 20010904//EN"
 "http://www.w3.org/TR/2001/REC-SVG-20010904/DTD/svg10.dtd">
<svg version="1.0" xmlns="http://www.w3.org/2000/svg"
 width="500.000000pt" height="500.000000pt" viewBox="0 0 500.000000 500.000000"
 preserveAspectRatio="xMidYMid meet">

<g transform="translate(0.000000,500.000000) scale(0.100000,-0.100000)"
fill="#000000" stroke="none">
<path d="M2052 3532 c-143 -51 -231 -188 -220 -343 9 -126 77 -222 197 -278
49 -23 67 -26 153 -25 l96 2 108 -109 c59 -60 110 -109 113 -109 3 0 54 48
114 108 l107 107 98 0 c83 0 105 4 152 26 80 37 125 81 162 157 30 60 33 75
33 152 -1 73 -5 93 -30 143 -54 109 -154 176 -276 185 -156 11 -300 -87 -341
-233 -14 -50 -28 -67 -28 -34 0 74 -96 196 -187 239 -67 32 -179 37 -251 12z
m224 -86 c189 -88 190 -366 2 -460 -101 -50 -213 -32 -293 49 -32 31 -55 65
-63 91 -16 55 -15 147 2 188 20 49 85 116 131 137 59 27 157 25 221 -5z m671
3 c54 -26 116 -96 131 -147 53 -176 -65 -342 -244 -342 -112 0 -217 78 -245
183 -15 56 -6 144 20 195 24 47 84 101 132 118 56 20 156 17 206 -7z"/>
<path d="M2193 3364 c19 -99 -87 -195 -182 -165 -19 6 -37 8 -39 6 -3 -2 -1
-21 3 -42 9 -50 76 -117 133 -132 170 -46 305 164 190 295 -30 34 -76 64 -99
64 -7 0 -9 -10 -6 -26z"/>
<path d="M2882 3339 c-1 -54 -31 -107 -74 -130 -26 -14 -94 -17 -125 -6 -20 7
-23 5 -23 -18 0 -59 69 -136 140 -155 74 -20 144 7 196 76 25 33 29 46 29 104
0 58 -4 71 -29 104 -28 37 -80 76 -102 76 -6 0 -11 -22 -12 -51z"/>
<path d="M1910 2750 c0 -5 5 -10 10 -10 6 0 10 5 10 10 0 6 -4 10 -10 10 -5 0
-10 -4 -10 -10z"/>
<path d="M3070 2750 c0 -5 5 -10 10 -10 6 0 10 5 10 10 0 6 -4 10 -10 10 -5 0
-10 -4 -10 -10z"/>
<path d="M1820 2133 c-62 -32 -89 -127 -55 -193 26 -49 61 -70 122 -70 50 0
58 3 91 36 l37 37 -24 8 c-18 7 -29 4 -53 -16 -61 -52 -128 -14 -128 72 0 69
20 93 75 93 32 0 48 -5 58 -20 16 -23 60 -17 55 8 -10 49 -118 76 -178 45z"/>
<path d="M3345 2136 c-50 -22 -68 -51 -73 -115 -7 -101 38 -151 137 -151 39 0
56 6 80 26 35 30 39 50 12 59 -13 4 -28 -3 -45 -20 -31 -31 -67 -32 -102 -1
-24 20 -28 31 -28 74 0 66 22 92 76 92 24 0 45 -7 57 -19 12 -12 27 -17 40
-14 24 6 25 8 10 35 -22 42 -107 59 -164 34z"/>
<path d="M1170 2005 l0 -135 30 0 c29 0 30 1 30 50 l0 50 70 0 c63 0 70 2 70
20 0 18 -7 20 -70 20 l-70 0 0 45 0 45 70 0 c63 0 70 2 70 20 0 19 -7 20 -100
20 l-100 0 0 -135z"/>
<path d="M1480 2018 c-24 -68 -46 -129 -48 -136 -3 -10 3 -13 24 -10 22 2 30
10 38 36 9 31 11 32 63 32 52 0 54 -1 69 -35 11 -27 20 -35 40 -35 17 0 24 5
22 13 -3 6 -25 67 -49 134 l-44 123 -35 0 -36 0 -44 -122z m99 31 c7 -23 15
-47 18 -55 4 -11 -5 -14 -37 -14 -32 0 -41 3 -37 14 3 8 11 32 18 55 7 23 15
41 19 41 4 0 12 -18 19 -41z"/>
<path d="M2080 2005 l0 -135 110 0 c103 0 110 1 110 20 0 17 -8 19 -82 22
l-83 3 0 35 0 35 73 3 c64 3 72 5 72 22 0 18 -7 20 -75 20 l-75 0 0 35 0 35
80 0 c73 0 80 2 80 20 0 19 -7 20 -105 20 l-105 0 0 -135z"/>
<path d="M2350 2120 c0 -17 7 -20 45 -20 l45 0 0 -115 0 -115 31 0 30 0 -1 98
c-1 53 -1 105 -1 115 1 13 10 17 41 17 33 0 40 3 40 20 0 19 -7 20 -115 20
-108 0 -115 -1 -115 -20z"/>
<path d="M2649 2125 c0 -8 -1 -31 -1 -50 0 -205 0 -205 26 -205 23 0 25 4 28
53 3 50 4 52 34 55 29 3 35 -2 64 -52 27 -48 36 -56 61 -56 16 0 29 2 29 5 0
3 -14 27 -30 54 l-31 49 26 26 c33 33 34 87 3 116 -19 17 -35 20 -115 20 -76
0 -93 -3 -94 -15z m171 -45 c8 -14 8 -26 0 -40 -9 -16 -21 -20 -65 -20 l-55 0
0 40 0 40 55 0 c44 0 56 -4 65 -20z"/>
<path d="M2996 2014 c-25 -69 -46 -130 -46 -135 0 -5 11 -9 24 -9 19 0 27 8
36 35 l12 36 56 -3 c54 -3 57 -4 66 -35 7 -27 14 -33 37 -33 l28 0 -38 108
c-63 174 -56 162 -95 162 l-34 0 -46 -126z m111 -5 c5 -28 4 -29 -31 -29 -20
0 -36 3 -36 7 0 3 8 31 17 61 l17 55 14 -33 c7 -18 16 -45 19 -61z"/>
<path d="M3599 2123 c-1 -19 -1 -194 0 -230 1 -18 7 -23 26 -23 23 0 25 3 25
48 0 34 5 54 18 65 17 15 21 13 67 -48 43 -58 53 -65 83 -65 l33 0 -48 60
c-86 108 -83 94 -22 156 l53 54 -29 0 c-23 0 -44 -14 -92 -62 l-63 -62 0 62
c0 59 -1 62 -25 62 -17 0 -25 -6 -26 -17z"/>
<path d="M2122 1675 c-38 -27 -25 -57 30 -75 49 -15 67 -35 49 -53 -14 -14
-74 -13 -79 1 -2 7 -11 12 -19 12 -14 0 -14 -3 2 -20 33 -36 125 -19 125 23 0
24 -17 37 -61 50 -33 10 -44 18 -44 32 0 24 48 33 71 14 16 -13 33 -4 18 11
-19 19 -68 22 -92 5z"/>
<path d="M2420 1605 c0 -92 17 -118 22 -32 3 48 5 52 28 52 23 0 25 -4 28 -52
2 -29 8 -53 13 -53 6 0 9 24 7 56 -3 66 -23 88 -58 66 -18 -11 -20 -10 -20 18
0 16 -4 30 -10 30 -6 0 -10 -35 -10 -85z"/>
<path d="M2880 1605 c0 -50 4 -85 10 -85 6 0 10 35 10 85 0 50 -4 85 -10 85
-6 0 -10 -35 -10 -85z"/>
<path d="M2290 1630 c-24 -24 -26 -72 -4 -94 20 -20 58 -21 74 -1 18 22 5 31
-15 11 -22 -22 -34 -20 -46 8 -23 51 14 99 49 64 6 -6 15 -8 19 -4 9 9 -24 36
-44 36 -7 0 -22 -9 -33 -20z"/>
<path d="M2587 1632 c-21 -23 -22 -76 -1 -96 37 -38 94 -8 94 48 0 57 -58 87
-93 48z m69 -26 c8 -33 2 -57 -18 -69 -24 -16 -48 8 -48 48 0 38 6 45 36 45
17 0 25 -7 30 -24z"/>
<path d="M2748 1640 c-47 -28 -24 -120 30 -120 39 0 52 17 52 67 0 32 -5 45
-19 53 -24 12 -41 12 -63 0z m60 -56 c3 -43 -12 -60 -42 -48 -39 15 -23 98 17
92 18 -2 23 -11 25 -44z"/>
</g>
</svg>
